<svg xmlns="http://www.w3.org/2000/svg" width="880" height="190" viewBox="0 0 880 190" role="img">
  
  <defs>
    <pattern id="grid" width="26" height="26" patternUnits="userSpaceOnUse">
      <path d="M26 0H0V26" fill="none" stroke="#101a24" stroke-width="1"/>
    </pattern>
    <linearGradient id="scan" x1="0" y1="0" x2="0" y2="1">
      <stop offset="0%" stop-color="#4cc9f0" stop-opacity="0"/>
      <stop offset="50%" stop-color="#4cc9f0" stop-opacity="0.5"/>
      <stop offset="100%" stop-color="#4cc9f0" stop-opacity="0"/>
    </linearGradient>
    <linearGradient id="title" x1="0" y1="0" x2="1" y2="0">
      <stop offset="0%" stop-color="#00e5a0"/>
      <stop offset="60%" stop-color="#4cc9f0"/>
      <stop offset="100%" stop-color="#8ab4ff"/>
    </linearGradient>
  </defs>
  <style>
    text { font-family: ui-monospace, 'SF Mono', 'Cascadia Code', Menlo, Consolas, monospace; }
    @keyframes blink { 0%, 45% { opacity: 1 } 50%, 95% { opacity: .15 } 100% { opacity: 1 } }
    @keyframes sweep { from { transform: translateY(-70px) } to { transform: translateY(var(--h, 200px)) } }
    .blink { animation: blink 2.4s steps(1) infinite; }
    @keyframes radar { from { transform: translateX(0) } to { transform: translateX(742px) } }
     .radar { animation: radar 6s linear infinite; }
  </style>
  <rect width="880" height="190" rx="10" fill="#05080d"/>
  <rect width="880" height="190" rx="10" fill="url(#grid)" opacity="0.55"/>
  
    <rect x="20" y="19" width="3" height="12" fill="#00e5a0"/>
   <text x="29" y="28" font-size="11" letter-spacing="2.2" fill="#6b8299">CONTRIBUTION TELEMETRY · 52 WEEKS</text>
    <text x="860" y="28" font-size="10" fill="#00e5a0" text-anchor="end">914 EVENTS</text>
    <text x="46" y="50" font-size="9" fill="#3d4d5c">JUL</text>,<text x="74" y="50" font-size="9" fill="#3d4d5c">AUG</text>,<text x="144" y="50" font-size="9" fill="#3d4d5c">SEP</text>,<text x="200" y="50" font-size="9" fill="#3d4d5c">OCT</text>,<text x="256" y="50" font-size="9" fill="#3d4d5c">NOV</text>,<text x="326" y="50" font-size="9" fill="#3d4d5c">DEC</text>,<text x="382" y="50" font-size="9" fill="#3d4d5c">JAN</text>,<text x="438" y="50" font-size="9" fill="#3d4d5c">FEB</text>,<text x="494" y="50" font-size="9" fill="#3d4d5c">MAR</text>,<text x="564" y="50" font-size="9" fill="#3d4d5c">APR</text>,<text x="620" y="50" font-size="9" fill="#3d4d5c">MAY</text>,<text x="690" y="50" font-size="9" fill="#3d4d5c">JUN</text>,<text x="746" y="50" font-size="9" fill="#3d4d5c">JUL</text><text x="38" y="81" font-size="8" fill="#3d4d5c" text-anchor="end">MON</text><text x="38" y="109" font-size="8" fill="#3d4d5c" text-anchor="end">WED</text><text x="38" y="137" font-size="8" fill="#3d4d5c" text-anchor="end">FRI</text><rect x="46" y="58" width="11" height="11" rx="2" fill="#0d141d"><title>2025-07-20: 0</title></rect><rect x="46" y="72" width="11" height="11" rx="2" fill="#0d141d"><title>2025-07-21: 0</title></rect><rect x="46" y="86" width="11" height="11" rx="2" fill="#0b4d3a"><title>2025-07-22: 5</title></rect><rect x="46" y="100" width="11" height="11" rx="2" fill="#0b4d3a"><title>2025-07-23: 11</title></rect><rect x="46" y="114" width="11" height="11" rx="2" fill="#0b4d3a"><title>2025-07-24: 4</title></rect><rect x="46" y="128" width="11" height="11" rx="2" fill="#0b4d3a"><title>2025-07-25: 1</title></rect><rect x="46" y="142" width="11" height="11" rx="2" fill="#0d141d"><title>2025-07-26: 0</title></rect><rect x="60" y="58" width="11" height="11" rx="2" fill="#0d141d"><title>2025-07-27: 0</title></rect><rect x="60" y="72" width="11" height="11" rx="2" fill="#0b4d3a"><title>2025-07-28: 8</title></rect><rect x="60" y="86" width="11" height="11" rx="2" fill="#0b4d3a"><title>2025-07-29: 3</title></rect><rect x="60" y="100" width="11" height="11" rx="2" fill="#0b4d3a"><title>2025-07-30: 2</title></rect><rect x="60" y="114" width="11" height="11" rx="2" fill="#0f8560"><title>2025-07-31: 13</title></rect><rect x="60" y="128" width="11" height="11" rx="2" fill="#0b4d3a"><title>2025-08-01: 2</title></rect><rect x="60" y="142" width="11" height="11" rx="2" fill="#0d141d"><title>2025-08-02: 0</title></rect><rect x="74" y="58" width="11" height="11" rx="2" fill="#0d141d"><title>2025-08-03: 0</title></rect><rect x="74" y="72" width="11" height="11" rx="2" fill="#0b4d3a"><title>2025-08-04: 1</title></rect><rect x="74" y="86" width="11" height="11" rx="2" fill="#0b4d3a"><title>2025-08-05: 1</title></rect><rect x="74" y="100" width="11" height="11" rx="2" fill="#0b4d3a"><title>2025-08-06: 4</title></rect><rect x="74" y="114" width="11" height="11" rx="2" fill="#0b4d3a"><title>2025-08-07: 8</title></rect><rect x="74" y="128" width="11" height="11" rx="2" fill="#0f8560"><title>2025-08-08: 19</title></rect><rect x="74" y="142" width="11" height="11" rx="2" fill="#0d141d"><title>2025-08-09: 0</title></rect><rect x="88" y="58" width="11" height="11" rx="2" fill="#0d141d"><title>2025-08-10: 0</title></rect><rect x="88" y="72" width="11" height="11" rx="2" fill="#0b4d3a"><title>2025-08-11: 6</title></rect><rect x="88" y="86" width="11" height="11" rx="2" fill="#0f8560"><title>2025-08-12: 20</title></rect><rect x="88" y="100" width="11" height="11" rx="2" fill="#0b4d3a"><title>2025-08-13: 9</title></rect><rect x="88" y="114" width="11" height="11" rx="2" fill="#0b4d3a"><title>2025-08-14: 2</title></rect><rect x="88" y="128" width="11" height="11" rx="2" fill="#0b4d3a"><title>2025-08-15: 1</title></rect><rect x="88" y="142" width="11" height="11" rx="2" fill="#0d141d"><title>2025-08-16: 0</title></rect><rect x="102" y="58" width="11" height="11" rx="2" fill="#0d141d"><title>2025-08-17: 0</title></rect><rect x="102" y="72" width="11" height="11" rx="2" fill="#0d141d"><title>2025-08-18: 0</title></rect><rect x="102" y="86" width="11" height="11" rx="2" fill="#0d141d"><title>2025-08-19: 0</title></rect><rect x="102" y="100" width="11" height="11" rx="2" fill="#0b4d3a"><title>2025-08-20: 2</title></rect><rect x="102" y="114" width="11" height="11" rx="2" fill="#0d141d"><title>2025-08-21: 0</title></rect><rect x="102" y="128" width="11" height="11" rx="2" fill="#0b4d3a"><title>2025-08-22: 4</title></rect><rect x="102" y="142" width="11" height="11" rx="2" fill="#0d141d"><title>2025-08-23: 0</title></rect><rect x="116" y="58" width="11" height="11" rx="2" fill="#0d141d"><title>2025-08-24: 0</title></rect><rect x="116" y="72" width="11" height="11" rx="2" fill="#4dffc3"><title>2025-08-25: 39</title></rect><rect x="116" y="86" width="11" height="11" rx="2" fill="#00c489"><title>2025-08-26: 33</title></rect><rect x="116" y="100" width="11" height="11" rx="2" fill="#0b4d3a"><title>2025-08-27: 3</title></rect><rect x="116" y="114" width="11" height="11" rx="2" fill="#4dffc3"><title>2025-08-28: 38</title></rect><rect x="116" y="128" width="11" height="11" rx="2" fill="#0d141d"><title>2025-08-29: 0</title></rect><rect x="116" y="142" width="11" height="11" rx="2" fill="#0d141d"><title>2025-08-30: 0</title></rect><rect x="130" y="58" width="11" height="11" rx="2" fill="#0d141d"><title>2025-08-31: 0</title></rect><rect x="130" y="72" width="11" height="11" rx="2" fill="#0d141d"><title>2025-09-01: 0</title></rect><rect x="130" y="86" width="11" height="11" rx="2" fill="#0d141d"><title>2025-09-02: 0</title></rect><rect x="130" y="100" width="11" height="11" rx="2" fill="#0b4d3a"><title>2025-09-03: 1</title></rect><rect x="130" y="114" width="11" height="11" rx="2" fill="#0d141d"><title>2025-09-04: 0</title></rect><rect x="130" y="128" width="11" height="11" rx="2" fill="#0d141d"><title>2025-09-05: 0</title></rect><rect x="130" y="142" width="11" height="11" rx="2" fill="#0d141d"><title>2025-09-06: 0</title></rect><rect x="144" y="58" width="11" height="11" rx="2" fill="#0d141d"><title>2025-09-07: 0</title></rect><rect x="144" y="72" width="11" height="11" rx="2" fill="#0b4d3a"><title>2025-09-08: 12</title></rect><rect x="144" y="86" width="11" height="11" rx="2" fill="#0b4d3a"><title>2025-09-09: 7</title></rect><rect x="144" y="100" width="11" height="11" rx="2" fill="#0d141d"><title>2025-09-10: 0</title></rect><rect x="144" y="114" width="11" height="11" rx="2" fill="#0b4d3a"><title>2025-09-11: 1</title></rect><rect x="144" y="128" width="11" height="11" rx="2" fill="#0d141d"><title>2025-09-12: 0</title></rect><rect x="144" y="142" width="11" height="11" rx="2" fill="#0d141d"><title>2025-09-13: 0</title></rect><rect x="158" y="58" width="11" height="11" rx="2" fill="#0d141d"><title>2025-09-14: 0</title></rect><rect x="158" y="72" width="11" height="11" rx="2" fill="#0d141d"><title>2025-09-15: 0</title></rect><rect x="158" y="86" width="11" height="11" rx="2" fill="#0b4d3a"><title>2025-09-16: 1</title></rect><rect x="158" y="100" width="11" height="11" rx="2" fill="#0b4d3a"><title>2025-09-17: 6</title></rect><rect x="158" y="114" width="11" height="11" rx="2" fill="#0b4d3a"><title>2025-09-18: 2</title></rect><rect x="158" y="128" width="11" height="11" rx="2" fill="#0d141d"><title>2025-09-19: 0</title></rect><rect x="158" y="142" width="11" height="11" rx="2" fill="#0d141d"><title>2025-09-20: 0</title></rect><rect x="172" y="58" width="11" height="11" rx="2" fill="#0d141d"><title>2025-09-21: 0</title></rect><rect x="172" y="72" width="11" height="11" rx="2" fill="#0d141d"><title>2025-09-22: 0</title></rect><rect x="172" y="86" width="11" height="11" rx="2" fill="#0d141d"><title>2025-09-23: 0</title></rect><rect x="172" y="100" width="11" height="11" rx="2" fill="#0d141d"><title>2025-09-24: 0</title></rect><rect x="172" y="114" width="11" height="11" rx="2" fill="#0b4d3a"><title>2025-09-25: 2</title></rect><rect x="172" y="128" width="11" height="11" rx="2" fill="#0d141d"><title>2025-09-26: 0</title></rect><rect x="172" y="142" width="11" height="11" rx="2" fill="#0d141d"><title>2025-09-27: 0</title></rect><rect x="186" y="58" width="11" height="11" rx="2" fill="#0d141d"><title>2025-09-28: 0</title></rect><rect x="186" y="72" width="11" height="11" rx="2" fill="#0d141d"><title>2025-09-29: 0</title></rect><rect x="186" y="86" width="11" height="11" rx="2" fill="#0d141d"><title>2025-09-30: 0</title></rect><rect x="186" y="100" width="11" height="11" rx="2" fill="#0d141d"><title>2025-10-01: 0</title></rect><rect x="186" y="114" width="11" height="11" rx="2" fill="#0b4d3a"><title>2025-10-02: 2</title></rect><rect x="186" y="128" width="11" height="11" rx="2" fill="#0b4d3a"><title>2025-10-03: 1</title></rect><rect x="186" y="142" width="11" height="11" rx="2" fill="#0d141d"><title>2025-10-04: 0</title></rect><rect x="200" y="58" width="11" height="11" rx="2" fill="#0d141d"><title>2025-10-05: 0</title></rect><rect x="200" y="72" width="11" height="11" rx="2" fill="#0b4d3a"><title>2025-10-06: 2</title></rect><rect x="200" y="86" width="11" height="11" rx="2" fill="#0b4d3a"><title>2025-10-07: 5</title></rect><rect x="200" y="100" width="11" height="11" rx="2" fill="#0b4d3a"><title>2025-10-08: 2</title></rect><rect x="200" y="114" width="11" height="11" rx="2" fill="#0b4d3a"><title>2025-10-09: 4</title></rect><rect x="200" y="128" width="11" height="11" rx="2" fill="#0b4d3a"><title>2025-10-10: 2</title></rect><rect x="200" y="142" width="11" height="11" rx="2" fill="#0d141d"><title>2025-10-11: 0</title></rect><rect x="214" y="58" width="11" height="11" rx="2" fill="#0d141d"><title>2025-10-12: 0</title></rect><rect x="214" y="72" width="11" height="11" rx="2" fill="#0d141d"><title>2025-10-13: 0</title></rect><rect x="214" y="86" width="11" height="11" rx="2" fill="#0b4d3a"><title>2025-10-14: 1</title></rect><rect x="214" y="100" width="11" height="11" rx="2" fill="#0b4d3a"><title>2025-10-15: 5</title></rect><rect x="214" y="114" width="11" height="11" rx="2" fill="#0d141d"><title>2025-10-16: 0</title></rect><rect x="214" y="128" width="11" height="11" rx="2" fill="#0d141d"><title>2025-10-17: 0</title></rect><rect x="214" y="142" width="11" height="11" rx="2" fill="#0b4d3a"><title>2025-10-18: 2</title></rect><rect x="228" y="58" width="11" height="11" rx="2" fill="#0d141d"><title>2025-10-19: 0</title></rect><rect x="228" y="72" width="11" height="11" rx="2" fill="#0b4d3a"><title>2025-10-20: 3</title></rect><rect x="228" y="86" width="11" height="11" rx="2" fill="#0b4d3a"><title>2025-10-21: 1</title></rect><rect x="228" y="100" width="11" height="11" rx="2" fill="#0b4d3a"><title>2025-10-22: 5</title></rect><rect x="228" y="114" width="11" height="11" rx="2" fill="#0d141d"><title>2025-10-23: 0</title></rect><rect x="228" y="128" width="11" height="11" rx="2" fill="#0b4d3a"><title>2025-10-24: 4</title></rect><rect x="228" y="142" width="11" height="11" rx="2" fill="#0d141d"><title>2025-10-25: 0</title></rect><rect x="242" y="58" width="11" height="11" rx="2" fill="#0d141d"><title>2025-10-26: 0</title></rect><rect x="242" y="72" width="11" height="11" rx="2" fill="#0d141d"><title>2025-10-27: 0</title></rect><rect x="242" y="86" width="11" height="11" rx="2" fill="#0d141d"><title>2025-10-28: 0</title></rect><rect x="242" y="100" width="11" height="11" rx="2" fill="#0b4d3a"><title>2025-10-29: 3</title></rect><rect x="242" y="114" width="11" height="11" rx="2" fill="#0b4d3a"><title>2025-10-30: 5</title></rect><rect x="242" y="128" width="11" height="11" rx="2" fill="#0d141d"><title>2025-10-31: 0</title></rect><rect x="242" y="142" width="11" height="11" rx="2" fill="#0d141d"><title>2025-11-01: 0</title></rect><rect x="256" y="58" width="11" height="11" rx="2" fill="#0d141d"><title>2025-11-02: 0</title></rect><rect x="256" y="72" width="11" height="11" rx="2" fill="#0d141d"><title>2025-11-03: 0</title></rect><rect x="256" y="86" width="11" height="11" rx="2" fill="#0b4d3a"><title>2025-11-04: 1</title></rect><rect x="256" y="100" width="11" height="11" rx="2" fill="#0b4d3a"><title>2025-11-05: 7</title></rect><rect x="256" y="114" width="11" height="11" rx="2" fill="#0b4d3a"><title>2025-11-06: 4</title></rect><rect x="256" y="128" width="11" height="11" rx="2" fill="#0f8560"><title>2025-11-07: 13</title></rect><rect x="256" y="142" width="11" height="11" rx="2" fill="#0b4d3a"><title>2025-11-08: 2</title></rect><rect x="270" y="58" width="11" height="11" rx="2" fill="#0d141d"><title>2025-11-09: 0</title></rect><rect x="270" y="72" width="11" height="11" rx="2" fill="#0f8560"><title>2025-11-10: 16</title></rect><rect x="270" y="86" width="11" height="11" rx="2" fill="#00c489"><title>2025-11-11: 27</title></rect><rect x="270" y="100" width="11" height="11" rx="2" fill="#4dffc3"><title>2025-11-12: 39</title></rect><rect x="270" y="114" width="11" height="11" rx="2" fill="#0b4d3a"><title>2025-11-13: 5</title></rect><rect x="270" y="128" width="11" height="11" rx="2" fill="#0b4d3a"><title>2025-11-14: 10</title></rect><rect x="270" y="142" width="11" height="11" rx="2" fill="#0d141d"><title>2025-11-15: 0</title></rect><rect x="284" y="58" width="11" height="11" rx="2" fill="#0d141d"><title>2025-11-16: 0</title></rect><rect x="284" y="72" width="11" height="11" rx="2" fill="#0f8560"><title>2025-11-17: 13</title></rect><rect x="284" y="86" width="11" height="11" rx="2" fill="#0b4d3a"><title>2025-11-18: 7</title></rect><rect x="284" y="100" width="11" height="11" rx="2" fill="#4dffc3"><title>2025-11-19: 45</title></rect><rect x="284" y="114" width="11" height="11" rx="2" fill="#0d141d"><title>2025-11-20: 0</title></rect><rect x="284" y="128" width="11" height="11" rx="2" fill="#0b4d3a"><title>2025-11-21: 9</title></rect><rect x="284" y="142" width="11" height="11" rx="2" fill="#0d141d"><title>2025-11-22: 0</title></rect><rect x="298" y="58" width="11" height="11" rx="2" fill="#0d141d"><title>2025-11-23: 0</title></rect><rect x="298" y="72" width="11" height="11" rx="2" fill="#0b4d3a"><title>2025-11-24: 3</title></rect><rect x="298" y="86" width="11" height="11" rx="2" fill="#0b4d3a"><title>2025-11-25: 1</title></rect><rect x="298" y="100" width="11" height="11" rx="2" fill="#0b4d3a"><title>2025-11-26: 4</title></rect><rect x="298" y="114" width="11" height="11" rx="2" fill="#0d141d"><title>2025-11-27: 0</title></rect><rect x="298" y="128" width="11" height="11" rx="2" fill="#0d141d"><title>2025-11-28: 0</title></rect><rect x="298" y="142" width="11" height="11" rx="2" fill="#0d141d"><title>2025-11-29: 0</title></rect><rect x="312" y="58" width="11" height="11" rx="2" fill="#0d141d"><title>2025-11-30: 0</title></rect><rect x="312" y="72" width="11" height="11" rx="2" fill="#0d141d"><title>2025-12-01: 0</title></rect><rect x="312" y="86" width="11" height="11" rx="2" fill="#0d141d"><title>2025-12-02: 0</title></rect><rect x="312" y="100" width="11" height="11" rx="2" fill="#0d141d"><title>2025-12-03: 0</title></rect><rect x="312" y="114" width="11" height="11" rx="2" fill="#0d141d"><title>2025-12-04: 0</title></rect><rect x="312" y="128" width="11" height="11" rx="2" fill="#0d141d"><title>2025-12-05: 0</title></rect><rect x="312" y="142" width="11" height="11" rx="2" fill="#0d141d"><title>2025-12-06: 0</title></rect><rect x="326" y="58" width="11" height="11" rx="2" fill="#0d141d"><title>2025-12-07: 0</title></rect><rect x="326" y="72" width="11" height="11" rx="2" fill="#0d141d"><title>2025-12-08: 0</title></rect><rect x="326" y="86" width="11" height="11" rx="2" fill="#0d141d"><title>2025-12-09: 0</title></rect><rect x="326" y="100" width="11" height="11" rx="2" fill="#0b4d3a"><title>2025-12-10: 1</title></rect><rect x="326" y="114" width="11" height="11" rx="2" fill="#0d141d"><title>2025-12-11: 0</title></rect><rect x="326" y="128" width="11" height="11" rx="2" fill="#0d141d"><title>2025-12-12: 0</title></rect><rect x="326" y="142" width="11" height="11" rx="2" fill="#0d141d"><title>2025-12-13: 0</title></rect><rect x="340" y="58" width="11" height="11" rx="2" fill="#0d141d"><title>2025-12-14: 0</title></rect><rect x="340" y="72" width="11" height="11" rx="2" fill="#0d141d"><title>2025-12-15: 0</title></rect><rect x="340" y="86" width="11" height="11" rx="2" fill="#0d141d"><title>2025-12-16: 0</title></rect><rect x="340" y="100" width="11" height="11" rx="2" fill="#0d141d"><title>2025-12-17: 0</title></rect><rect x="340" y="114" width="11" height="11" rx="2" fill="#0d141d"><title>2025-12-18: 0</title></rect><rect x="340" y="128" width="11" height="11" rx="2" fill="#0d141d"><title>2025-12-19: 0</title></rect><rect x="340" y="142" width="11" height="11" rx="2" fill="#0d141d"><title>2025-12-20: 0</title></rect><rect x="354" y="58" width="11" height="11" rx="2" fill="#0d141d"><title>2025-12-21: 0</title></rect><rect x="354" y="72" width="11" height="11" rx="2" fill="#0d141d"><title>2025-12-22: 0</title></rect><rect x="354" y="86" width="11" height="11" rx="2" fill="#0d141d"><title>2025-12-23: 0</title></rect><rect x="354" y="100" width="11" height="11" rx="2" fill="#0d141d"><title>2025-12-24: 0</title></rect><rect x="354" y="114" width="11" height="11" rx="2" fill="#0d141d"><title>2025-12-25: 0</title></rect><rect x="354" y="128" width="11" height="11" rx="2" fill="#0d141d"><title>2025-12-26: 0</title></rect><rect x="354" y="142" width="11" height="11" rx="2" fill="#0d141d"><title>2025-12-27: 0</title></rect><rect x="368" y="58" width="11" height="11" rx="2" fill="#0d141d"><title>2025-12-28: 0</title></rect><rect x="368" y="72" width="11" height="11" rx="2" fill="#0d141d"><title>2025-12-29: 0</title></rect><rect x="368" y="86" width="11" height="11" rx="2" fill="#0d141d"><title>2025-12-30: 0</title></rect><rect x="368" y="100" width="11" height="11" rx="2" fill="#0d141d"><title>2025-12-31: 0</title></rect><rect x="368" y="114" width="11" height="11" rx="2" fill="#0d141d"><title>2026-01-01: 0</title></rect><rect x="368" y="128" width="11" height="11" rx="2" fill="#0d141d"><title>2026-01-02: 0</title></rect><rect x="368" y="142" width="11" height="11" rx="2" fill="#0d141d"><title>2026-01-03: 0</title></rect><rect x="382" y="58" width="11" height="11" rx="2" fill="#0d141d"><title>2026-01-04: 0</title></rect><rect x="382" y="72" width="11" height="11" rx="2" fill="#0d141d"><title>2026-01-05: 0</title></rect><rect x="382" y="86" width="11" height="11" rx="2" fill="#0b4d3a"><title>2026-01-06: 1</title></rect><rect x="382" y="100" width="11" height="11" rx="2" fill="#0b4d3a"><title>2026-01-07: 2</title></rect><rect x="382" y="114" width="11" height="11" rx="2" fill="#0b4d3a"><title>2026-01-08: 1</title></rect><rect x="382" y="128" width="11" height="11" rx="2" fill="#0d141d"><title>2026-01-09: 0</title></rect><rect x="382" y="142" width="11" height="11" rx="2" fill="#0d141d"><title>2026-01-10: 0</title></rect><rect x="396" y="58" width="11" height="11" rx="2" fill="#0b4d3a"><title>2026-01-11: 1</title></rect><rect x="396" y="72" width="11" height="11" rx="2" fill="#0d141d"><title>2026-01-12: 0</title></rect><rect x="396" y="86" width="11" height="11" rx="2" fill="#0b4d3a"><title>2026-01-13: 5</title></rect><rect x="396" y="100" width="11" height="11" rx="2" fill="#0d141d"><title>2026-01-14: 0</title></rect><rect x="396" y="114" width="11" height="11" rx="2" fill="#0d141d"><title>2026-01-15: 0</title></rect><rect x="396" y="128" width="11" height="11" rx="2" fill="#0d141d"><title>2026-01-16: 0</title></rect><rect x="396" y="142" width="11" height="11" rx="2" fill="#0d141d"><title>2026-01-17: 0</title></rect><rect x="410" y="58" width="11" height="11" rx="2" fill="#0d141d"><title>2026-01-18: 0</title></rect><rect x="410" y="72" width="11" height="11" rx="2" fill="#0b4d3a"><title>2026-01-19: 10</title></rect><rect x="410" y="86" width="11" height="11" rx="2" fill="#0b4d3a"><title>2026-01-20: 2</title></rect><rect x="410" y="100" width="11" height="11" rx="2" fill="#0d141d"><title>2026-01-21: 0</title></rect><rect x="410" y="114" width="11" height="11" rx="2" fill="#0b4d3a"><title>2026-01-22: 2</title></rect><rect x="410" y="128" width="11" height="11" rx="2" fill="#0b4d3a"><title>2026-01-23: 6</title></rect><rect x="410" y="142" width="11" height="11" rx="2" fill="#0b4d3a"><title>2026-01-24: 1</title></rect><rect x="424" y="58" width="11" height="11" rx="2" fill="#0b4d3a"><title>2026-01-25: 10</title></rect><rect x="424" y="72" width="11" height="11" rx="2" fill="#0d141d"><title>2026-01-26: 0</title></rect><rect x="424" y="86" width="11" height="11" rx="2" fill="#0d141d"><title>2026-01-27: 0</title></rect><rect x="424" y="100" width="11" height="11" rx="2" fill="#0d141d"><title>2026-01-28: 0</title></rect><rect x="424" y="114" width="11" height="11" rx="2" fill="#0f8560"><title>2026-01-29: 24</title></rect><rect x="424" y="128" width="11" height="11" rx="2" fill="#0f8560"><title>2026-01-30: 20</title></rect><rect x="424" y="142" width="11" height="11" rx="2" fill="#0f8560"><title>2026-01-31: 13</title></rect><rect x="438" y="58" width="11" height="11" rx="2" fill="#0f8560"><title>2026-02-01: 15</title></rect><rect x="438" y="72" width="11" height="11" rx="2" fill="#0b4d3a"><title>2026-02-02: 4</title></rect><rect x="438" y="86" width="11" height="11" rx="2" fill="#0b4d3a"><title>2026-02-03: 8</title></rect><rect x="438" y="100" width="11" height="11" rx="2" fill="#0d141d"><title>2026-02-04: 0</title></rect><rect x="438" y="114" width="11" height="11" rx="2" fill="#0f8560"><title>2026-02-05: 18</title></rect><rect x="438" y="128" width="11" height="11" rx="2" fill="#0d141d"><title>2026-02-06: 0</title></rect><rect x="438" y="142" width="11" height="11" rx="2" fill="#0d141d"><title>2026-02-07: 0</title></rect><rect x="452" y="58" width="11" height="11" rx="2" fill="#0b4d3a"><title>2026-02-08: 3</title></rect><rect x="452" y="72" width="11" height="11" rx="2" fill="#4dffc3"><title>2026-02-09: 49</title></rect><rect x="452" y="86" width="11" height="11" rx="2" fill="#0b4d3a"><title>2026-02-10: 11</title></rect><rect x="452" y="100" width="11" height="11" rx="2" fill="#0b4d3a"><title>2026-02-11: 6</title></rect><rect x="452" y="114" width="11" height="11" rx="2" fill="#00c489"><title>2026-02-12: 35</title></rect><rect x="452" y="128" width="11" height="11" rx="2" fill="#0b4d3a"><title>2026-02-13: 3</title></rect><rect x="452" y="142" width="11" height="11" rx="2" fill="#0d141d"><title>2026-02-14: 0</title></rect><rect x="466" y="58" width="11" height="11" rx="2" fill="#0d141d"><title>2026-02-15: 0</title></rect><rect x="466" y="72" width="11" height="11" rx="2" fill="#0d141d"><title>2026-02-16: 0</title></rect><rect x="466" y="86" width="11" height="11" rx="2" fill="#0d141d"><title>2026-02-17: 0</title></rect><rect x="466" y="100" width="11" height="11" rx="2" fill="#0d141d"><title>2026-02-18: 0</title></rect><rect x="466" y="114" width="11" height="11" rx="2" fill="#0d141d"><title>2026-02-19: 0</title></rect><rect x="466" y="128" width="11" height="11" rx="2" fill="#0d141d"><title>2026-02-20: 0</title></rect><rect x="466" y="142" width="11" height="11" rx="2" fill="#0d141d"><title>2026-02-21: 0</title></rect><rect x="480" y="58" width="11" height="11" rx="2" fill="#0d141d"><title>2026-02-22: 0</title></rect><rect x="480" y="72" width="11" height="11" rx="2" fill="#0d141d"><title>2026-02-23: 0</title></rect><rect x="480" y="86" width="11" height="11" rx="2" fill="#0d141d"><title>2026-02-24: 0</title></rect><rect x="480" y="100" width="11" height="11" rx="2" fill="#0d141d"><title>2026-02-25: 0</title></rect><rect x="480" y="114" width="11" height="11" rx="2" fill="#0d141d"><title>2026-02-26: 0</title></rect><rect x="480" y="128" width="11" height="11" rx="2" fill="#0d141d"><title>2026-02-27: 0</title></rect><rect x="480" y="142" width="11" height="11" rx="2" fill="#0b4d3a"><title>2026-02-28: 3</title></rect><rect x="494" y="58" width="11" height="11" rx="2" fill="#0b4d3a"><title>2026-03-01: 9</title></rect><rect x="494" y="72" width="11" height="11" rx="2" fill="#0b4d3a"><title>2026-03-02: 11</title></rect><rect x="494" y="86" width="11" height="11" rx="2" fill="#0d141d"><title>2026-03-03: 0</title></rect><rect x="494" y="100" width="11" height="11" rx="2" fill="#0b4d3a"><title>2026-03-04: 7</title></rect><rect x="494" y="114" width="11" height="11" rx="2" fill="#0b4d3a"><title>2026-03-05: 10</title></rect><rect x="494" y="128" width="11" height="11" rx="2" fill="#0b4d3a"><title>2026-03-06: 5</title></rect><rect x="494" y="142" width="11" height="11" rx="2" fill="#0d141d"><title>2026-03-07: 0</title></rect><rect x="508" y="58" width="11" height="11" rx="2" fill="#0d141d"><title>2026-03-08: 0</title></rect><rect x="508" y="72" width="11" height="11" rx="2" fill="#0d141d"><title>2026-03-09: 0</title></rect><rect x="508" y="86" width="11" height="11" rx="2" fill="#0b4d3a"><title>2026-03-10: 12</title></rect><rect x="508" y="100" width="11" height="11" rx="2" fill="#0d141d"><title>2026-03-11: 0</title></rect><rect x="508" y="114" width="11" height="11" rx="2" fill="#0b4d3a"><title>2026-03-12: 8</title></rect><rect x="508" y="128" width="11" height="11" rx="2" fill="#0d141d"><title>2026-03-13: 0</title></rect><rect x="508" y="142" width="11" height="11" rx="2" fill="#0f8560"><title>2026-03-14: 13</title></rect><rect x="522" y="58" width="11" height="11" rx="2" fill="#0b4d3a"><title>2026-03-15: 9</title></rect><rect x="522" y="72" width="11" height="11" rx="2" fill="#0b4d3a"><title>2026-03-16: 4</title></rect><rect x="522" y="86" width="11" height="11" rx="2" fill="#0b4d3a"><title>2026-03-17: 3</title></rect><rect x="522" y="100" width="11" height="11" rx="2" fill="#0b4d3a"><title>2026-03-18: 2</title></rect><rect x="522" y="114" width="11" height="11" rx="2" fill="#0b4d3a"><title>2026-03-19: 2</title></rect><rect x="522" y="128" width="11" height="11" rx="2" fill="#0b4d3a"><title>2026-03-20: 3</title></rect><rect x="522" y="142" width="11" height="11" rx="2" fill="#0d141d"><title>2026-03-21: 0</title></rect><rect x="536" y="58" width="11" height="11" rx="2" fill="#0b4d3a"><title>2026-03-22: 4</title></rect><rect x="536" y="72" width="11" height="11" rx="2" fill="#0b4d3a"><title>2026-03-23: 3</title></rect><rect x="536" y="86" width="11" height="11" rx="2" fill="#0b4d3a"><title>2026-03-24: 2</title></rect><rect x="536" y="100" width="11" height="11" rx="2" fill="#0b4d3a"><title>2026-03-25: 2</title></rect><rect x="536" y="114" width="11" height="11" rx="2" fill="#0b4d3a"><title>2026-03-26: 2</title></rect><rect x="536" y="128" width="11" height="11" rx="2" fill="#0b4d3a"><title>2026-03-27: 2</title></rect><rect x="536" y="142" width="11" height="11" rx="2" fill="#0b4d3a"><title>2026-03-28: 4</title></rect><rect x="550" y="58" width="11" height="11" rx="2" fill="#0b4d3a"><title>2026-03-29: 2</title></rect><rect x="550" y="72" width="11" height="11" rx="2" fill="#0d141d"><title>2026-03-30: 0</title></rect><rect x="550" y="86" width="11" height="11" rx="2" fill="#0d141d"><title>2026-03-31: 0</title></rect><rect x="550" y="100" width="11" height="11" rx="2" fill="#0b4d3a"><title>2026-04-01: 1</title></rect><rect x="550" y="114" width="11" height="11" rx="2" fill="#0d141d"><title>2026-04-02: 0</title></rect><rect x="550" y="128" width="11" height="11" rx="2" fill="#0d141d"><title>2026-04-03: 0</title></rect><rect x="550" y="142" width="11" height="11" rx="2" fill="#0d141d"><title>2026-04-04: 0</title></rect><rect x="564" y="58" width="11" height="11" rx="2" fill="#0d141d"><title>2026-04-05: 0</title></rect><rect x="564" y="72" width="11" height="11" rx="2" fill="#0d141d"><title>2026-04-06: 0</title></rect><rect x="564" y="86" width="11" height="11" rx="2" fill="#0d141d"><title>2026-04-07: 0</title></rect><rect x="564" y="100" width="11" height="11" rx="2" fill="#0d141d"><title>2026-04-08: 0</title></rect><rect x="564" y="114" width="11" height="11" rx="2" fill="#0d141d"><title>2026-04-09: 0</title></rect><rect x="564" y="128" width="11" height="11" rx="2" fill="#0d141d"><title>2026-04-10: 0</title></rect><rect x="564" y="142" width="11" height="11" rx="2" fill="#0d141d"><title>2026-04-11: 0</title></rect><rect x="578" y="58" width="11" height="11" rx="2" fill="#0d141d"><title>2026-04-12: 0</title></rect><rect x="578" y="72" width="11" height="11" rx="2" fill="#0d141d"><title>2026-04-13: 0</title></rect><rect x="578" y="86" width="11" height="11" rx="2" fill="#0d141d"><title>2026-04-14: 0</title></rect><rect x="578" y="100" width="11" height="11" rx="2" fill="#0d141d"><title>2026-04-15: 0</title></rect><rect x="578" y="114" width="11" height="11" rx="2" fill="#0d141d"><title>2026-04-16: 0</title></rect><rect x="578" y="128" width="11" height="11" rx="2" fill="#0d141d"><title>2026-04-17: 0</title></rect><rect x="578" y="142" width="11" height="11" rx="2" fill="#0d141d"><title>2026-04-18: 0</title></rect><rect x="592" y="58" width="11" height="11" rx="2" fill="#0d141d"><title>2026-04-19: 0</title></rect><rect x="592" y="72" width="11" height="11" rx="2" fill="#0d141d"><title>2026-04-20: 0</title></rect><rect x="592" y="86" width="11" height="11" rx="2" fill="#0d141d"><title>2026-04-21: 0</title></rect><rect x="592" y="100" width="11" height="11" rx="2" fill="#0d141d"><title>2026-04-22: 0</title></rect><rect x="592" y="114" width="11" height="11" rx="2" fill="#0d141d"><title>2026-04-23: 0</title></rect><rect x="592" y="128" width="11" height="11" rx="2" fill="#0d141d"><title>2026-04-24: 0</title></rect><rect x="592" y="142" width="11" height="11" rx="2" fill="#0d141d"><title>2026-04-25: 0</title></rect><rect x="606" y="58" width="11" height="11" rx="2" fill="#0d141d"><title>2026-04-26: 0</title></rect><rect x="606" y="72" width="11" height="11" rx="2" fill="#0d141d"><title>2026-04-27: 0</title></rect><rect x="606" y="86" width="11" height="11" rx="2" fill="#0d141d"><title>2026-04-28: 0</title></rect><rect x="606" y="100" width="11" height="11" rx="2" fill="#0d141d"><title>2026-04-29: 0</title></rect><rect x="606" y="114" width="11" height="11" rx="2" fill="#0d141d"><title>2026-04-30: 0</title></rect><rect x="606" y="128" width="11" height="11" rx="2" fill="#0d141d"><title>2026-05-01: 0</title></rect><rect x="606" y="142" width="11" height="11" rx="2" fill="#0d141d"><title>2026-05-02: 0</title></rect><rect x="620" y="58" width="11" height="11" rx="2" fill="#0d141d"><title>2026-05-03: 0</title></rect><rect x="620" y="72" width="11" height="11" rx="2" fill="#0d141d"><title>2026-05-04: 0</title></rect><rect x="620" y="86" width="11" height="11" rx="2" fill="#0d141d"><title>2026-05-05: 0</title></rect><rect x="620" y="100" width="11" height="11" rx="2" fill="#0d141d"><title>2026-05-06: 0</title></rect><rect x="620" y="114" width="11" height="11" rx="2" fill="#0d141d"><title>2026-05-07: 0</title></rect><rect x="620" y="128" width="11" height="11" rx="2" fill="#0d141d"><title>2026-05-08: 0</title></rect><rect x="620" y="142" width="11" height="11" rx="2" fill="#0d141d"><title>2026-05-09: 0</title></rect><rect x="634" y="58" width="11" height="11" rx="2" fill="#0d141d"><title>2026-05-10: 0</title></rect><rect x="634" y="72" width="11" height="11" rx="2" fill="#0d141d"><title>2026-05-11: 0</title></rect><rect x="634" y="86" width="11" height="11" rx="2" fill="#0d141d"><title>2026-05-12: 0</title></rect><rect x="634" y="100" width="11" height="11" rx="2" fill="#0d141d"><title>2026-05-13: 0</title></rect><rect x="634" y="114" width="11" height="11" rx="2" fill="#0d141d"><title>2026-05-14: 0</title></rect><rect x="634" y="128" width="11" height="11" rx="2" fill="#0d141d"><title>2026-05-15: 0</title></rect><rect x="634" y="142" width="11" height="11" rx="2" fill="#0d141d"><title>2026-05-16: 0</title></rect><rect x="648" y="58" width="11" height="11" rx="2" fill="#0d141d"><title>2026-05-17: 0</title></rect><rect x="648" y="72" width="11" height="11" rx="2" fill="#0d141d"><title>2026-05-18: 0</title></rect><rect x="648" y="86" width="11" height="11" rx="2" fill="#0d141d"><title>2026-05-19: 0</title></rect><rect x="648" y="100" width="11" height="11" rx="2" fill="#0d141d"><title>2026-05-20: 0</title></rect><rect x="648" y="114" width="11" height="11" rx="2" fill="#0d141d"><title>2026-05-21: 0</title></rect><rect x="648" y="128" width="11" height="11" rx="2" fill="#0d141d"><title>2026-05-22: 0</title></rect><rect x="648" y="142" width="11" height="11" rx="2" fill="#0d141d"><title>2026-05-23: 0</title></rect><rect x="662" y="58" width="11" height="11" rx="2" fill="#0d141d"><title>2026-05-24: 0</title></rect><rect x="662" y="72" width="11" height="11" rx="2" fill="#0d141d"><title>2026-05-25: 0</title></rect><rect x="662" y="86" width="11" height="11" rx="2" fill="#0d141d"><title>2026-05-26: 0</title></rect><rect x="662" y="100" width="11" height="11" rx="2" fill="#0d141d"><title>2026-05-27: 0</title></rect><rect x="662" y="114" width="11" height="11" rx="2" fill="#0d141d"><title>2026-05-28: 0</title></rect><rect x="662" y="128" width="11" height="11" rx="2" fill="#0d141d"><title>2026-05-29: 0</title></rect><rect x="662" y="142" width="11" height="11" rx="2" fill="#0d141d"><title>2026-05-30: 0</title></rect><rect x="676" y="58" width="11" height="11" rx="2" fill="#0d141d"><title>2026-05-31: 0</title></rect><rect x="676" y="72" width="11" height="11" rx="2" fill="#0d141d"><title>2026-06-01: 0</title></rect><rect x="676" y="86" width="11" height="11" rx="2" fill="#0d141d"><title>2026-06-02: 0</title></rect><rect x="676" y="100" width="11" height="11" rx="2" fill="#0d141d"><title>2026-06-03: 0</title></rect><rect x="676" y="114" width="11" height="11" rx="2" fill="#0d141d"><title>2026-06-04: 0</title></rect><rect x="676" y="128" width="11" height="11" rx="2" fill="#0d141d"><title>2026-06-05: 0</title></rect><rect x="676" y="142" width="11" height="11" rx="2" fill="#0d141d"><title>2026-06-06: 0</title></rect><rect x="690" y="58" width="11" height="11" rx="2" fill="#0d141d"><title>2026-06-07: 0</title></rect><rect x="690" y="72" width="11" height="11" rx="2" fill="#0d141d"><title>2026-06-08: 0</title></rect><rect x="690" y="86" width="11" height="11" rx="2" fill="#0d141d"><title>2026-06-09: 0</title></rect><rect x="690" y="100" width="11" height="11" rx="2" fill="#0d141d"><title>2026-06-10: 0</title></rect><rect x="690" y="114" width="11" height="11" rx="2" fill="#0d141d"><title>2026-06-11: 0</title></rect><rect x="690" y="128" width="11" height="11" rx="2" fill="#0d141d"><title>2026-06-12: 0</title></rect><rect x="690" y="142" width="11" height="11" rx="2" fill="#0d141d"><title>2026-06-13: 0</title></rect><rect x="704" y="58" width="11" height="11" rx="2" fill="#0d141d"><title>2026-06-14: 0</title></rect><rect x="704" y="72" width="11" height="11" rx="2" fill="#0d141d"><title>2026-06-15: 0</title></rect><rect x="704" y="86" width="11" height="11" rx="2" fill="#0d141d"><title>2026-06-16: 0</title></rect><rect x="704" y="100" width="11" height="11" rx="2" fill="#0d141d"><title>2026-06-17: 0</title></rect><rect x="704" y="114" width="11" height="11" rx="2" fill="#0d141d"><title>2026-06-18: 0</title></rect><rect x="704" y="128" width="11" height="11" rx="2" fill="#0d141d"><title>2026-06-19: 0</title></rect><rect x="704" y="142" width="11" height="11" rx="2" fill="#0d141d"><title>2026-06-20: 0</title></rect><rect x="718" y="58" width="11" height="11" rx="2" fill="#0d141d"><title>2026-06-21: 0</title></rect><rect x="718" y="72" width="11" height="11" rx="2" fill="#0d141d"><title>2026-06-22: 0</title></rect><rect x="718" y="86" width="11" height="11" rx="2" fill="#0d141d"><title>2026-06-23: 0</title></rect><rect x="718" y="100" width="11" height="11" rx="2" fill="#0d141d"><title>2026-06-24: 0</title></rect><rect x="718" y="114" width="11" height="11" rx="2" fill="#0d141d"><title>2026-06-25: 0</title></rect><rect x="718" y="128" width="11" height="11" rx="2" fill="#0d141d"><title>2026-06-26: 0</title></rect><rect x="718" y="142" width="11" height="11" rx="2" fill="#0d141d"><title>2026-06-27: 0</title></rect><rect x="732" y="58" width="11" height="11" rx="2" fill="#0d141d"><title>2026-06-28: 0</title></rect><rect x="732" y="72" width="11" height="11" rx="2" fill="#0d141d"><title>2026-06-29: 0</title></rect><rect x="732" y="86" width="11" height="11" rx="2" fill="#0d141d"><title>2026-06-30: 0</title></rect><rect x="732" y="100" width="11" height="11" rx="2" fill="#0d141d"><title>2026-07-01: 0</title></rect><rect x="732" y="114" width="11" height="11" rx="2" fill="#0d141d"><title>2026-07-02: 0</title></rect><rect x="732" y="128" width="11" height="11" rx="2" fill="#0d141d"><title>2026-07-03: 0</title></rect><rect x="732" y="142" width="11" height="11" rx="2" fill="#0d141d"><title>2026-07-04: 0</title></rect><rect x="746" y="58" width="11" height="11" rx="2" fill="#0d141d"><title>2026-07-05: 0</title></rect><rect x="746" y="72" width="11" height="11" rx="2" fill="#0d141d"><title>2026-07-06: 0</title></rect><rect x="746" y="86" width="11" height="11" rx="2" fill="#0d141d"><title>2026-07-07: 0</title></rect><rect x="746" y="100" width="11" height="11" rx="2" fill="#0d141d"><title>2026-07-08: 0</title></rect><rect x="746" y="114" width="11" height="11" rx="2" fill="#0d141d"><title>2026-07-09: 0</title></rect><rect x="746" y="128" width="11" height="11" rx="2" fill="#0d141d"><title>2026-07-10: 0</title></rect><rect x="746" y="142" width="11" height="11" rx="2" fill="#0b4d3a"><title>2026-07-11: 4</title></rect><rect x="760" y="58" width="11" height="11" rx="2" fill="#0b4d3a"><title>2026-07-12: 1</title></rect><rect x="760" y="72" width="11" height="11" rx="2" fill="#0d141d"><title>2026-07-13: 0</title></rect><rect x="760" y="86" width="11" height="11" rx="2" fill="#0d141d"><title>2026-07-14: 0</title></rect><rect x="760" y="100" width="11" height="11" rx="2" fill="#0b4d3a"><title>2026-07-15: 1</title></rect><rect x="760" y="114" width="11" height="11" rx="2" fill="#0b4d3a"><title>2026-07-16: 7</title></rect><rect x="760" y="128" width="11" height="11" rx="2" fill="#0b4d3a"><title>2026-07-17: 1</title></rect><rect x="760" y="142" width="11" height="11" rx="2" fill="#0d141d"><title>2026-07-18: 0</title></rect><rect x="774" y="58" width="11" height="11" rx="2" fill="#0b4d3a"><title>2026-07-19: 2</title></rect><rect x="774" y="72" width="11" height="11" rx="2" fill="#0d141d"><title>2026-07-20: 0</title></rect>
    <rect class="radar" x="46" y="54" width="26" height="102" fill="url(#scan)" opacity="0.35"/>
    <text x="748" y="173" font-size="8.5" fill="#3d4d5c" text-anchor="end">LOW</text>
    <rect x="762 " y="164" width="10" height="10" rx="2" fill="#0d141d"/><rect x="776 " y="164" width="10" height="10" rx="2" fill="#0b4d3a"/><rect x="790 " y="164" width="10" height="10" rx="2" fill="#0f8560"/><rect x="804 " y="164" width="10" height="10" rx="2" fill="#00c489"/><rect x="818 " y="164" width="10" height="10" rx="2" fill="#4dffc3"/>
    <text x="860" y="173" font-size="8.5" fill="#3d4d5c" text-anchor="end">HIGH</text>
  <rect x="0.5" y="0.5" width="879" height="189" rx="10" fill="none" stroke="#1b2734"/>
</svg>