<svg xmlns="http://www.w3.org/2000/svg" width="880" height="200" viewBox="0 0 880 200" role="img">
  
  <defs>
    <pattern id="grid" width="26" height="26" patternUnits="userSpaceOnUse">
      <path d="M26 0H0V26" fill="none" stroke="#101a24" stroke-width="1"/>
    </pattern>
    <linearGradient id="scan" x1="0" y1="0" x2="0" y2="1">
      <stop offset="0%" stop-color="#4cc9f0" stop-opacity="0"/>
      <stop offset="50%" stop-color="#4cc9f0" stop-opacity="0.5"/>
      <stop offset="100%" stop-color="#4cc9f0" stop-opacity="0"/>
    </linearGradient>
    <linearGradient id="title" x1="0" y1="0" x2="1" y2="0">
      <stop offset="0%" stop-color="#00e5a0"/>
      <stop offset="60%" stop-color="#4cc9f0"/>
      <stop offset="100%" stop-color="#8ab4ff"/>
    </linearGradient>
  </defs>
  <style>
    text { font-family: ui-monospace, 'SF Mono', 'Cascadia Code', Menlo, Consolas, monospace; }
    @keyframes blink { 0%, 45% { opacity: 1 } 50%, 95% { opacity: .15 } 100% { opacity: 1 } }
    @keyframes sweep { from { transform: translateY(-70px) } to { transform: translateY(var(--h, 200px)) } }
    .blink { animation: blink 2.4s steps(1) infinite; }
    .scanline { animation: sweep 7s linear infinite; --h: 200px; }
  </style>
  <rect width="880" height="200" rx="10" fill="#05080d"/>
  <rect width="880" height="200" rx="10" fill="url(#grid)" opacity="0.55"/>
  
    <rect class="scanline" x="0" y="0" width="880" height="70" fill="url(#scan)" opacity="0.12"/>
    <line x1="0" y1="36" x2="880" y2="36" stroke="#1b2734"/>
    <circle class="blink" cx="24" cy="21" r="3.5" fill="#00e5a0"/>
    <text x="36" y="25" font-size="10" letter-spacing="1.8" fill="#00e5a0">SYSTEM ONLINE</text>
    <text x="858" y="25" font-size="10" letter-spacing="1.2" fill="#3d4d5c" text-anchor="end">LAST SYNC 2026-07-20 07:33Z</text>
    <text x="32" y="106" font-size="46" font-weight="700" letter-spacing="5" fill="url(#title)">CODERJOEW</text>
    <rect class="blink" x="328.4" y="82" width="16" height="30" fill="#4cc9f0" opacity="0.85"/>
    <text x="34" y="134" font-size="12" letter-spacing="2" fill="#4cc9f0">systems tooling · game infrastructure · database internals</text>
    <text x="34" y="168" font-size="11.5" fill="#6b8299" font-style="italic">If I had asked users what they wanted, they would have told me a faster `for` loop.</text>
    <path d="M8 22 L8 8 L22 8" fill="none" stroke="#00e5a0" stroke-width="1.5" opacity="0.7"/><path d="M872 22 L872 8 L858 8" fill="none" stroke="#00e5a0" stroke-width="1.5" opacity="0.7"/><path d="M8 178 L8 192 L22 192" fill="none" stroke="#00e5a0" stroke-width="1.5" opacity="0.7"/><path d="M872 178 L872 192 L858 192" fill="none" stroke="#00e5a0" stroke-width="1.5" opacity="0.7"/>
  <rect x="0.5" y="0.5" width="879" height="199" rx="10" fill="none" stroke="#1b2734"/>
</svg>