<svg xmlns="http://www.w3.org/2000/svg" width="880" height="292" viewBox="0 0 880 292" role="img">
  
  <defs>
    <pattern id="grid" width="26" height="26" patternUnits="userSpaceOnUse">
      <path d="M26 0H0V26" fill="none" stroke="#101a24" stroke-width="1"/>
    </pattern>
    <linearGradient id="scan" x1="0" y1="0" x2="0" y2="1">
      <stop offset="0%" stop-color="#4cc9f0" stop-opacity="0"/>
      <stop offset="50%" stop-color="#4cc9f0" stop-opacity="0.5"/>
      <stop offset="100%" stop-color="#4cc9f0" stop-opacity="0"/>
    </linearGradient>
    <linearGradient id="title" x1="0" y1="0" x2="1" y2="0">
      <stop offset="0%" stop-color="#00e5a0"/>
      <stop offset="60%" stop-color="#4cc9f0"/>
      <stop offset="100%" stop-color="#8ab4ff"/>
    </linearGradient>
  </defs>
  <style>
    text { font-family: ui-monospace, 'SF Mono', 'Cascadia Code', Menlo, Consolas, monospace; }
    @keyframes blink { 0%, 45% { opacity: 1 } 50%, 95% { opacity: .15 } 100% { opacity: 1 } }
    @keyframes sweep { from { transform: translateY(-70px) } to { transform: translateY(var(--h, 200px)) } }
    .blink { animation: blink 2.4s steps(1) infinite; }
    
  </style>
  <rect width="880" height="292" rx="10" fill="#05080d"/>
  <rect width="880" height="292" rx="10" fill="url(#grid)" opacity="0.55"/>
  
    <rect x="20" y="19" width="3" height="12" fill="#00e5a0"/>
   <text x="29" y="28" font-size="11" letter-spacing="2.2" fill="#6b8299">TELEMETRY</text>
    <text x="860" y="28" font-size="10" fill="#3d4d5c" text-anchor="end">NOMINAL</text>
    <g>
        <rect x="20" y="46" width="201" height="76" rx="6" fill="#0d141d" stroke="#1b2734"/>
        <rect x="20" y="46" width="3" height="76" rx="1.5" fill="#00e5a0"/>
        <text x="36" y="88" font-size="27" font-weight="700" fill="#d5dfe9">42</text>
        <text x="36" y="108" font-size="9" letter-spacing="1.4" fill="#3d4d5c">REPOS AUTHORED</text>
      </g><g>
        <rect x="233" y="46" width="201" height="76" rx="6" fill="#0d141d" stroke="#1b2734"/>
        <rect x="233" y="46" width="3" height="76" rx="1.5" fill="#4cc9f0"/>
        <text x="249" y="88" font-size="27" font-weight="700" fill="#d5dfe9">2,365</text>
        <text x="249" y="108" font-size="9" letter-spacing="1.4" fill="#3d4d5c">COMMITS ALL TIME</text>
      </g><g>
        <rect x="446" y="46" width="201" height="76" rx="6" fill="#0d141d" stroke="#1b2734"/>
        <rect x="446" y="46" width="3" height="76" rx="1.5" fill="#ffa94d"/>
        <text x="462" y="88" font-size="27" font-weight="700" fill="#d5dfe9">30</text>
        <text x="462" y="108" font-size="9" letter-spacing="1.4" fill="#3d4d5c">FOLLOWERS</text>
      </g><g>
        <rect x="659" y="46" width="201" height="76" rx="6" fill="#0d141d" stroke="#1b2734"/>
        <rect x="659" y="46" width="3" height="76" rx="1.5" fill="#00e5a0"/>
        <text x="675" y="88" font-size="27" font-weight="700" fill="#d5dfe9">2015</text>
        <text x="675" y="108" font-size="9" letter-spacing="1.4" fill="#3d4d5c">SHIPPING SINCE</text>
      </g>
    <rect x="20" y="149" width="3" height="12" fill="#4cc9f0"/>
   <text x="29" y="158" font-size="11" letter-spacing="2.2" fill="#6b8299">LANGUAGE DISTRIBUTION · WEIGHTED BY REPO</text>
    <!-- Full width is the authored state so the bar degrades to correct-but-static
         wherever SMIL doesn't run, rather than clipping to nothing. -->
    <clipPath id="barclip"><rect x="20" y="176" width="840" height="16" rx="3">
      <animate attributeName="width" from="0" to="840" dur="1.3s" fill="freeze" calcMode="spline" keySplines="0.16 1 0.3 1"/>
    </rect></clipPath>
    <rect x="20" y="176" width="840" height="16" rx="3" fill="#0d141d"/>
    <g clip-path="url(#barclip)"><rect x="20" y="176" width="316.53775267211086" height="16" fill="#178600"/><rect x="336.53775267211086" y="176" width="307.2185470154245" height="16" fill="#4F5D95"/><rect x="643.7562996875354" y="176" width="79.97069207007043" height="16" fill="#A97BFF"/><rect x="723.7269917576058" y="176" width="77.97408341454833" height="16" fill="#f1e05a"/><rect x="801.7010751721541" y="176" width="13.237321543745308" height="16" fill="#3572A5"/><rect x="814.9383967158994" y="176" width="12.583222618221237" height="16" fill="#e34c26"/><rect x="827.5216193341207" y="176" width="32.478380665879406" height="16" fill="#3d4d5c"/></g>
    <circle cx="24" cy="224" r="4" fill="#178600"/>
        <text x="35" y="228" font-size="11" fill="#d5dfe9">C#</text>
        <text x="216" y="228" font-size="11" fill="#6b8299" text-anchor="end">37.7%</text><circle cx="238" cy="224" r="4" fill="#4F5D95"/>
        <text x="249" y="228" font-size="11" fill="#d5dfe9">PHP</text>
        <text x="430" y="228" font-size="11" fill="#6b8299" text-anchor="end">36.6%</text><circle cx="452" cy="224" r="4" fill="#A97BFF"/>
        <text x="463" y="228" font-size="11" fill="#d5dfe9">Kotlin</text>
        <text x="644" y="228" font-size="11" fill="#6b8299" text-anchor="end">9.5%</text><circle cx="666" cy="224" r="4" fill="#f1e05a"/>
        <text x="677" y="228" font-size="11" fill="#d5dfe9">JavaScript</text>
        <text x="858" y="228" font-size="11" fill="#6b8299" text-anchor="end">9.3%</text><circle cx="24" cy="248" r="4" fill="#3572A5"/>
        <text x="35" y="252" font-size="11" fill="#d5dfe9">Python</text>
        <text x="216" y="252" font-size="11" fill="#6b8299" text-anchor="end">1.6%</text><circle cx="238" cy="248" r="4" fill="#e34c26"/>
        <text x="249" y="252" font-size="11" fill="#d5dfe9">HTML</text>
        <text x="430" y="252" font-size="11" fill="#6b8299" text-anchor="end">1.5%</text><circle cx="452" cy="248" r="4" fill="#3d4d5c"/>
        <text x="463" y="252" font-size="11" fill="#d5dfe9">other</text>
        <text x="644" y="252" font-size="11" fill="#6b8299" text-anchor="end">3.9%</text>
  <rect x="0.5" y="0.5" width="879" height="291" rx="10" fill="none" stroke="#1b2734"/>
</svg>